<svg xmlns="http://www.w3.org/2000/svg" viewBox="0 0 1024 1024" width="1024" height="1024" xmlns:c2pa="http://c2pa.org/manifest"><metadata><c2pa:manifest>AAAWgmp1bWIAAAAeanVtZGMycGEAEQAQgAAAqgA4m3EDYzJwYQAAABZcanVtYgAAAEdqdW1kYzJtYQARABCAAACqADibcQN1cm46YzJwYToyZDk5MWZiYi1kYjUxLTQ0MmEtYjZlYS1mMGVmNGExOGQ5NTIAAAADl2p1bWIAAAApanVtZGMyYXMAEQAQgAAAqgA4m3EDYzJwYS5hc3NlcnRpb25zAAAAALxqdW1iAAAARGp1bWRjYm9yABEAEIAAAKoAOJtxE2MycGEuaW5ncmVkaWVudC52MwAAAAAYYzJzaCA5t7HLGJ9Yk4KCMrO5mcwAAABwY2JvcqNpZGM6Zm9ybWF0bWltYWdlL3N2Zyt4bWxqaW5zdGFuY2VJRHgseG1wOmlpZDoxNTlmN2RhYS05NmIxLTRiYWEtOGZmZC0zNWRkMDVmNjgxNjZscmVsYXRpb25zaGlwaHBhcmVudE9mAAAB4mp1bWIAAABBanVtZGNib3IAEQAQgAAAqgA4m3ETYzJwYS5hY3Rpb25zLnYyAAAAABhjMnNoEGVGKQqb+RMwndWxkSRr3wAAAZljYm9yomdhY3Rpb25zgqJmYWN0aW9ua2MycGEub3BlbmVkanBhcmFtZXRlcnOha2luZ3JlZGllbnRzgaJjdXJseC1zZWxmI2p1bWJmPWMycGEuYXNzZXJ0aW9ucy9jMnBhLmluZ3JlZGllbnQudjNkaGFzaFggcccPPB5VJizyii9LQNWlYGvhJP+nRIt9irE5np5i7/GkZmFjdGlvbngdY29tLmFudGhyb3BpYy5jbGF1ZGUucHJvdmlkZWRqcGFyYW1ldGVyc6F4H2NvbS5hbnRocm9waWMub3JpZ2luLWNvbmZpZGVuY2VndW5rbm93bmtkZXNjcmlwdGlvbnhmQ2xhdWRlIHByb3ZpZGVkIHRoaXMgZmlsZSBhdCB0aGUgcmVxdWVzdCBvZiBhIHVzZXIgYW5kIG1heSBoYXZlIGNyZWF0ZWQgb3IgbW9kaWZpZWQgdGhlIGZpbGUgY29udGVudHMubXNvZnR3YXJlQWdlbnShZG5hbWVmQ2xhdWRlcmFsbEFjdGlvbnNJbmNsdWRlZPUAAADIanVtYgAAAEBqdW1kY2JvcgARABCAAACqADibcRNjMnBhLmhhc2guZGF0YQAAAAAYYzJzaJQNP7ckJPOO+Ee2WUsFEMsAAACAY2JvcqVjYWxnZnNoYTI1NmNwYWRNAAAAAAAAAAAAAAAAAGRoYXNoWCAKNOBsAE9g19DXMQLFkoocmUWovOI1nT7FqB2CDWqcj2RuYW1lbmp1bWJmIG1hbmlmZXN0amV4Y2x1c2lvbnOBomVzdGFydBiaZmxlbmd0aBkeBAAAAj5qdW1iAAAAJ2p1bWRjMmNsABEAEIAAAKoAOJtxA2MycGEuY2xhaW0udjIAAAACD2Nib3KlY2FsZ2ZzaGEyNTZpc2lnbmF0dXJleE1zZWxmI2p1bWJmPS9jMnBhL3VybjpjMnBhOjJkOTkxZmJiLWRiNTEtNDQyYS1iNmVhLWYwZWY0YTE4ZDk1Mi9jMnBhLnNpZ25hdHVyZWppbnN0YW5jZUlEeCx4bXA6aWlkOjkwZmM2ZjMzLTM1YjMtNDkxYS05YTJmLThhNGM3NjMyNTFiYXJjcmVhdGVkX2Fzc2VydGlvbnODomN1cmx4LXNlbGYjanVtYmY9YzJwYS5hc3NlcnRpb25zL2MycGEuaW5ncmVkaWVudC52M2RoYXNoWCBxxw88HlUmLPKKL0tA1aVga+Ek/6dEi32KsTmenmLv8aJjdXJseCpzZWxmI2p1bWJmPWMycGEuYXNzZXJ0aW9ucy9jMnBhLmFjdGlvbnMudjJkaGFzaFggXQtH+BYtwSy+PjlHF7FvOzF+dxlVzEahqC/b29RFn8qiY3VybHgpc2VsZiNqdW1iZj1jMnBhLmFzc2VydGlvbnMvYzJwYS5oYXNoLmRhdGFkaGFzaFggH9JXKF7SzWJS9Mut3PCVHZcdmYyiFFw1edKr9RGjFLV0Y2xhaW1fZ2VuZXJhdG9yX2luZm+jZG5hbWVvQW50aHJvcGljIEZpbGVzZ3ZlcnNpb25lMS4wLjBrc3BlY1ZlcnNpb25lMi40LjAAABA4anVtYgAAAChqdW1kYzJjcwARABCAAACqADibcQNjMnBhLnNpZ25hdHVyZQAAABAIY2JvctKEWQISogEmGCFZAgowggIGMIIBjaADAgECAhRA5aAK7sI50L64g/oGQgU9Z1UTADAKBggqhkjOPQQDAzBJMRcwFQYDVQQKEw5BbnRocm9waWMsIFBCQzEuMCwGA1UEAxMlQW50aHJvcGljIENvbnRlbnQgQ3JlZGVudGlhbHMgUm9vdCBDQTAeFw0yNjA4MDcxODQzNTZaFw0yODA4MDYxOTQzNTZaMEQxFzAVBgNVBAoTDkFudGhyb3BpYywgUEJDMSkwJwYDVQQDEyBBbnRocm9waWMgQ2xhdWRlIENvbnRlbnQgU2lnbmluZzBZMBMGByqGSM49AgEGCCqGSM49AwEHA0IABJh6CmvLUBgFFNU0vUKlOVtE6djd17L5SuwX0LemFisBM3dkd/3cyjxFA3Qo5S46fX0/ihY0VZ7mfb9KF703t5OjWDBWMA4GA1UdDwEB/wQEAwIHgDAVBgNVHSUEDjAMBgorBgEEAYPoXgIBMAwGA1UdEwEB/wQCMAAwHwYDVR0jBBgwFoAUzlHiBIFOZFsj+OPEz5o+nMHXXMIwCgYIKoZIzj0EAwMDZwAwZAIwMXMdFJ4BetLLVY7ORuE9noqbbAZOZn/aArXyTwFAZfKrPzxF2vPoJNf1+UCdg1XGAjBwX1zd9WGqYkqmL5SFqw1QySjr1zJfpJM9+1rdDwSPLMOPOjKuiXjoU/pUUeG9RwmhY3BhZFkNngAAAAAAAAAAAAAAAAAAAAAAAAAAAAAAAAAAAAAAAAAAAAAAAAAAAAAAAAAAAAAAAAAAAAAAAAAAAAAAAAAAAAAAAAAAAAAAAAAAAAAAAAAAAAAAAAAAAAAAAAAAAAAAAAAAAAAAAAAAAAAAAAAAAAAAAAAAAAAAAAAAAAAAAAAAAAAAAAAAAAAAAAAAAAAAAAAAAAAAAAAAAAAAAAAAAAAAAAAAAAAAAAAAAAAAAAAAAAAAAAAAAAAAAAAAAAAAAAAAAAAAAAAAAAAAAAAAAAAAAAAAAAAAAAAAAAAAAAAAAAAAAAAAAAAAAAAAAAAAAAAAAAAAAAAAAAAAAAAAAAAAAAAAAAAAAAAAAAAAAAAAAAAAAAAAAAAAAAAAAAAAAAAAAAAAAAAAAAAAAAAAAAAAAAAAAAAAAAAAAAAAAAAAAAAAAAAAAAAAAAAAAAAAAAAAAAAAAAAAAAAAAAAAAAAAAAAAAAAAAAAAAAAAAAAAAAAAAAAAAAAAAAAAAAAAAAAAAAAAAAAAAAAAAAAAAAAAAAAAAAAAAAAAAAAAAAAAAAAAAAAAAAAAAAAAAAAAAAAAAAAAAAAAAAAAAAAAAAAAAAAAAAAAAAAAAAAAAAAAAAAAAAAAAAAAAAAAAAAAAAAAAAAAAAAAAAAAAAAAAAAAAAAAAAAAAAAAAAAAAAAAAAAAAAAAAAAAAAAAAAAAAAAAAAAAAAAAAAAAAAAAAAAAAAAAAAAAAAAAAAAAAAAAAAAAAAAAAAAAAAAAAAAAAAAAAAAAAAAAAAAAAAAAAAAAAAAAAAAAAAAAAAAAAAAAAAAAAAAAAAAAAAAAAAAAAAAAAAAAAAAAAAAAAAAAAAAAAAAAAAAAAAAAAAAAAAAAAAAAAAAAAAAAAAAAAAAAAAAAAAAAAAAAAAAAAAAAAAAAAAAAAAAAAAAAAAAAAAAAAAAAAAAAAAAAAAAAAAAAAAAAAAAAAAAAAAAAAAAAAAAAAAAAAAAAAAAAAAAAAAAAAAAAAAAAAAAAAAAAAAAAAAAAAAAAAAAAAAAAAAAAAAAAAAAAAAAAAAAAAAAAAAAAAAAAAAAAAAAAAAAAAAAAAAAAAAAAAAAAAAAAAAAAAAAAAAAAAAAAAAAAAAAAAAAAAAAAAAAAAAAAAAAAAAAAAAAAAAAAAAAAAAAAAAAAAAAAAAAAAAAAAAAAAAAAAAAAAAAAAAAAAAAAAAAAAAAAAAAAAAAAAAAAAAAAAAAAAAAAAAAAAAAAAAAAAAAAAAAAAAAAAAAAAAAAAAAAAAAAAAAAAAAAAAAAAAAAAAAAAAAAAAAAAAAAAAAAAAAAAAAAAAAAAAAAAAAAAAAAAAAAAAAAAAAAAAAAAAAAAAAAAAAAAAAAAAAAAAAAAAAAAAAAAAAAAAAAAAAAAAAAAAAAAAAAAAAAAAAAAAAAAAAAAAAAAAAAAAAAAAAAAAAAAAAAAAAAAAAAAAAAAAAAAAAAAAAAAAAAAAAAAAAAAAAAAAAAAAAAAAAAAAAAAAAAAAAAAAAAAAAAAAAAAAAAAAAAAAAAAAAAAAAAAAAAAAAAAAAAAAAAAAAAAAAAAAAAAAAAAAAAAAAAAAAAAAAAAAAAAAAAAAAAAAAAAAAAAAAAAAAAAAAAAAAAAAAAAAAAAAAAAAAAAAAAAAAAAAAAAAAAAAAAAAAAAAAAAAAAAAAAAAAAAAAAAAAAAAAAAAAAAAAAAAAAAAAAAAAAAAAAAAAAAAAAAAAAAAAAAAAAAAAAAAAAAAAAAAAAAAAAAAAAAAAAAAAAAAAAAAAAAAAAAAAAAAAAAAAAAAAAAAAAAAAAAAAAAAAAAAAAAAAAAAAAAAAAAAAAAAAAAAAAAAAAAAAAAAAAAAAAAAAAAAAAAAAAAAAAAAAAAAAAAAAAAAAAAAAAAAAAAAAAAAAAAAAAAAAAAAAAAAAAAAAAAAAAAAAAAAAAAAAAAAAAAAAAAAAAAAAAAAAAAAAAAAAAAAAAAAAAAAAAAAAAAAAAAAAAAAAAAAAAAAAAAAAAAAAAAAAAAAAAAAAAAAAAAAAAAAAAAAAAAAAAAAAAAAAAAAAAAAAAAAAAAAAAAAAAAAAAAAAAAAAAAAAAAAAAAAAAAAAAAAAAAAAAAAAAAAAAAAAAAAAAAAAAAAAAAAAAAAAAAAAAAAAAAAAAAAAAAAAAAAAAAAAAAAAAAAAAAAAAAAAAAAAAAAAAAAAAAAAAAAAAAAAAAAAAAAAAAAAAAAAAAAAAAAAAAAAAAAAAAAAAAAAAAAAAAAAAAAAAAAAAAAAAAAAAAAAAAAAAAAAAAAAAAAAAAAAAAAAAAAAAAAAAAAAAAAAAAAAAAAAAAAAAAAAAAAAAAAAAAAAAAAAAAAAAAAAAAAAAAAAAAAAAAAAAAAAAAAAAAAAAAAAAAAAAAAAAAAAAAAAAAAAAAAAAAAAAAAAAAAAAAAAAAAAAAAAAAAAAAAAAAAAAAAAAAAAAAAAAAAAAAAAAAAAAAAAAAAAAAAAAAAAAAAAAAAAAAAAAAAAAAAAAAAAAAAAAAAAAAAAAAAAAAAAAAAAAAAAAAAAAAAAAAAAAAAAAAAAAAAAAAAAAAAAAAAAAAAAAAAAAAAAAAAAAAAAAAAAAAAAAAAAAAAAAAAAAAAAAAAAAAAAAAAAAAAAAAAAAAAAAAAAAAAAAAAAAAAAAAAAAAAAAAAAAAAAAAAAAAAAAAAAAAAAAAAAAAAAAAAAAAAAAAAAAAAAAAAAAAAAAAAAAAAAAAAAAAAAAAAAAAAAAAAAAAAAAAAAAAAAAAAAAAAAAAAAAAAAAAAAAAAAAAAAAAAAAAAAAAAAAAAAAAAAAAAAAAAAAAAAAAAAAAAAAAAAAAAAAAAAAAAAAAAAAAAAAAAAAAAAAAAAAAAAAAAAAAAAAAAAAAAAAAAAAAAAAAAAAAAAAAAAAAAAAAAAAAAAAAAAAAAAAAAAAAAAAAAAAAAAAAAAAAAAAAAAAAAAAAAAAAAAAAAAAAAAAAAAAAAAAAAAAAAAAAAAAAAAAAAAAAAAAAAAAAAAAAAAAAAAAAAAAAAAAAAAAAAAAAAAAAAAAAAAAAAAAAAAAAAAAAAAAAAAAAAAAAAAAAAAAAAAAAAAAAAAAAAAAAAAAAAAAAAAAAAAAAAAAAAAAAAAAAAAAAAAAAAAAAAAAAAAAAAAAAAAAAAAAAAAAAAAAAAAAAAAAAAAAAAAAAAAAAAAAAAAAAAAAAAAAAAAAAAAAAAAAAAAAAAAAAAAAAAAAAAAAAAAAAAAAAAAAAAAAAAAAAAAAAAAAAAAAAAAAAAAAAAAAAAAAAAAAAAAAAAAAAAAAAAAAAAAAAAAAAAAAAAAAAAAAAAAAAAAAAAAAAAAAAAAAAAAAAAAAAAAAAAAAAAAAAAAAAAAAAAAAAAAAAAAAAAAAAAAAAAAAAAAAAAAAAAAAAAAAAAAAAAAAAAAAAAAAAAAAAAAAAAAAAAAAAAAAAAAAAAAAAAAAAAAAAAAAAAAAAAAAAAAAAAAAAAAAAAAAAAAAAAAAAAAAAAAAAAAAAAAAAAAAAAAAAAAAAAAAAAAAAAAAAAAAAAAAAAAAAAAAAAAAAAAAAAAAAAAAAAAAAAAAAAAAAAAAAAAAAAAAAAAAAAAAAAAAAAAAAAAAAAAAAAAAAAAAAAAAAAAAAAAAAAAAAAAAAAAAAAAAAAAAAAAAAAAAAAAAAAAAAAAAAAAAAAAAAAAAAAAAAAAAAAAAAAAAAAAAAAAAAAAAAAAAAAAAAAAAAAAAAAAAAAAAAAAAAAAAAAAAAAAAAAAAAAAAAAAAAAAAAAAAAAAAAAAAAAAAAAAAAAAAAAAAAAAAAAAAAAAAAAAAAAAAAAAAAAAAAAAAAAAAAAAAAAAAAAAAAAAAAAAAAAAAAAAAAAAAAAAAAAAAAAAAAAAAAAAAAAAAAAAAAAAAAAAAAAAAAAAAAAAAAAAAAAAAAAAAAAAAAAAAAAAAAAAAAAAAAAAAAAAAAAAAAAAAAAAAAAAAAAAAAAAAAAAAAAAAAAAAAAAAAAAAAAAAAAAAAAAAAAAAAAAAAAAAAAAAAAAAAAAAAAAAAAAAAAAAAAAAAAAAAAAAAAAAAAAAAAAAAAAAAAAAAAAAAAAAAAAAAAAAAAAAAAAAAAAAAAAAAAAAAAAAAAAAAAAAAAAAAAAAAAAAAAAAAAAAAAAAAAAAAAAAAAAAAAAAAAAAAAAAAAAAAAAAAAAAAAAAAAAAAAAAAAAAAAAAAAAAAAAAAAAAAAAAAAAAAAAAAAAAAAAAAAAAAAAAAAAAAAAAAAAAAAAAAAAAAAAAAAAAAAAAAAAAAAAAAAAAAAAAAAAAAAAAAAAAAAAAAAAAAAAAAAAAAAAAAAAAAAAAAAAAAAAAAAAAAAAAAAAAAAAAAAAAAAAAAAAAAAAAAAAAAAAAAAAAAAAAAAAAAAAAAAAAAAAAAAAAAAAAAAAAAAAAAAAAAAAAAAAAAAAAAAAAAAAAAAAAAAAAAAAAAAAAAAAAAAAAAAAAAAAAAAAAAAAAAAAAAAAAAAAAAAAAAAAAAAAAAAAAAAAAAAAAAAAAAAAAAAAAAAAAAAAAAAAAAAAAAAAAAAAAAAAAAAAAAAAAAAAAAAAAAAAAAAAAAAAAAAAAAAAAAAAAAAAAAAAAAAAAAAAAAAAAAAAAAAAAAAAAAPZYQJUA2mm9xhkhEDp+qm0DIM6PPuDdOf1pLb1AyPgil+8h4u+yrvHYyBIZmHFhwriDwl4uDhSVV+4P49tXDLeTUc4=</c2pa:manifest></metadata>
<defs>
  <radialGradient id="bg" cx="38%" cy="28%" r="85%">
    <stop offset="0" stop-color="#6a5034"/><stop offset=".55" stop-color="#3b2a1b"/><stop offset="1" stop-color="#1f160e"/>
  </radialGradient>
  <linearGradient id="pageL" x1="0" x2="1">
    <stop offset="0" stop-color="#efe3c6"/><stop offset=".55" stop-color="#fbf4e2"/><stop offset=".88" stop-color="#eadbb8"/><stop offset="1" stop-color="#bfa97e"/>
  </linearGradient>
  <linearGradient id="pageR" x1="1" x2="0">
    <stop offset="0" stop-color="#e9dcbd"/><stop offset=".5" stop-color="#fdf7e8"/><stop offset=".86" stop-color="#ece0c0"/><stop offset="1" stop-color="#b9a277"/>
  </linearGradient>
  <linearGradient id="pageTop" x1="0" y1="0" x2="0" y2="1">
    <stop offset="0" stop-color="#fff" stop-opacity=".55"/><stop offset=".25" stop-color="#fff" stop-opacity="0"/>
  </linearGradient>
  <linearGradient id="gilt" x1="0" y1="0" x2="0" y2="1">
    <stop offset="0" stop-color="#f6dc8e"/><stop offset=".45" stop-color="#c99a3a"/><stop offset="1" stop-color="#7d5a1c"/>
  </linearGradient>
  <linearGradient id="leather" x1="0" y1="0" x2="0" y2="1">
    <stop offset="0" stop-color="#6b2a1e"/><stop offset="1" stop-color="#2e0f0a"/>
  </linearGradient>
  <linearGradient id="gold" x1="0" x2="1">
    <stop offset="0" stop-color="#7a5414"/><stop offset=".3" stop-color="#e9c46a"/><stop offset=".48" stop-color="#fff0b8"/><stop offset=".62" stop-color="#d8a843"/><stop offset="1" stop-color="#6e4a10"/>
  </linearGradient>
  <linearGradient id="goldShine" x1="0" y1="0" x2="0" y2="1">
    <stop offset="0" stop-color="#fff" stop-opacity=".25"/><stop offset=".4" stop-color="#fff" stop-opacity="0"/><stop offset="1" stop-color="#000" stop-opacity=".25"/>
  </linearGradient>
  <linearGradient id="goldDark" x1="0" x2="1">
    <stop offset="0" stop-color="#5a3c0c"/><stop offset=".45" stop-color="#d9b25a"/><stop offset="1" stop-color="#4d330a"/>
  </linearGradient>
  <linearGradient id="nib" x1="0" x2="1">
    <stop offset="0" stop-color="#8a6a26"/><stop offset=".45" stop-color="#ffe9a6"/><stop offset="1" stop-color="#9b7426"/>
  </linearGradient>
  <linearGradient id="ribbon" x1="0" x2="1">
    <stop offset="0" stop-color="#5e0e10"/><stop offset=".45" stop-color="#a8262a"/><stop offset="1" stop-color="#5a0c0e"/>
  </linearGradient>
  <radialGradient id="glow" cx="50%" cy="50%" r="50%"><stop offset="0" stop-color="#ffd59a" stop-opacity=".13"/><stop offset="1" stop-color="#ffd59a" stop-opacity="0"/></radialGradient>
  <radialGradient id="gutter" cx="50%" cy="50%" r="50%">
    <stop offset="0" stop-color="#6b5532" stop-opacity=".55"/><stop offset="1" stop-color="#6b5532" stop-opacity="0"/>
  </radialGradient>
  <filter id="drop" x="-20%" y="-20%" width="140%" height="160%"><feGaussianBlur stdDeviation="22"/></filter>
  <filter id="penShadow" x="-50%" y="-20%" width="200%" height="150%"><feGaussianBlur stdDeviation="9"/><feOffset dx="18" dy="22"/></filter>
  <filter id="soft"><feGaussianBlur stdDeviation=".6"/></filter>
  <clipPath id="clipL"><path d="M512,352 C420,300 270,286 152,304 L144,704 C262,690 420,706 512,760 Z"/></clipPath>
  <clipPath id="clipR"><path d="M512,352 C604,300 754,286 872,304 L880,704 C762,690 604,706 512,760 Z"/></clipPath>
<path id="gl0" d="M196,392.3 Q257,392.1 318,395.9"/>
<path id="gl1" d="M196,400.5 Q257,400.3 318,404.1"/>
<path id="gl2" d="M196,408.7 Q257,408.5 318,412.3"/>
<path id="gl3" d="M196,416.9 Q257,416.7 318,420.5"/>
<path id="gl4" d="M196,425.1 Q257,424.9 318,428.7"/>
<path id="gl5" d="M196,433.3 Q257,433.1 318,436.9"/>
<path id="gl6" d="M196,441.5 Q257,441.3 318,445.1"/>
<path id="gl7" d="M196,449.7 Q257,449.5 318,453.3"/>
<path id="gl8" d="M196,457.9 Q257,457.7 318,461.5"/>
<path id="gl9" d="M196,466.1 Q257,465.9 318,469.7"/>
<path id="gl10" d="M196,474.3 Q257,474.1 318,477.9"/>
<path id="gl11" d="M196,482.5 Q257,482.3 318,486.1"/>
<path id="gl12" d="M196,490.7 Q257,490.5 318,494.3"/>
<path id="gl13" d="M196,498.9 Q257,498.7 318,502.5"/>
<path id="gl14" d="M196,507.1 Q257,506.9 318,510.7"/>
<path id="gl15" d="M196,515.3 Q257,515.1 318,518.9"/>
<path id="gl16" d="M196,523.5 Q257,523.3 318,527.1"/>
<path id="gl17" d="M196,531.7 Q257,531.5 318,535.3"/>
<path id="gl18" d="M196,539.9 Q257,539.7 318,543.5"/>
<path id="gl19" d="M196,548.1 Q257,547.9 318,551.7"/>
<path id="gl20" d="M196,556.3 Q257,556.1 318,559.9"/>
<path id="gl21" d="M196,564.5 Q257,564.3 318,568.1"/>
<path id="gl22" d="M196,572.7 Q257,572.5 318,576.3"/>
<path id="gl23" d="M196,580.9 Q257,580.7 318,584.5"/>
<path id="gl24" d="M196,589.1 Q257,588.9 318,592.7"/>
<path id="gl25" d="M196,597.3 Q257,597.1 318,600.9"/>
<path id="gl26" d="M196,605.5 Q257,605.3 318,609.1"/>
<path id="gl27" d="M196,613.7 Q257,613.5 318,617.3"/>
<path id="gl28" d="M196,621.9 Q257,621.7 318,625.5"/>
<path id="gl29" d="M196,630.1 Q257,629.9 318,633.7"/>
<path id="gl30" d="M196,638.3 Q257,638.1 318,641.9"/>
<path id="gl31" d="M196,646.5 Q257,646.3 318,650.1"/>
<path id="gl32" d="M196,654.7 Q257,654.5 318,658.3"/>
<path id="gl33" d="M196,662.9 Q257,662.7 318,666.5"/>
<path id="gl34" d="M346,397.3 Q408,399.6 470,406.1"/>
<path id="gl35" d="M346,405.5 Q408,407.8 470,414.3"/>
<path id="gl36" d="M346,413.7 Q408,416.0 470,422.5"/>
<path id="gl37" d="M346,421.9 Q408,424.2 470,430.7"/>
<path id="gl38" d="M346,430.1 Q408,432.4 470,438.9"/>
<path id="gl39" d="M346,438.3 Q408,440.6 470,447.1"/>
<path id="gl40" d="M346,446.5 Q408,448.8 470,455.3"/>
<path id="gl41" d="M346,454.7 Q408,457.0 470,463.5"/>
<path id="gl42" d="M346,462.9 Q408,465.2 470,471.7"/>
<path id="gl43" d="M346,471.1 Q408,473.4 470,479.9"/>
<path id="gl44" d="M346,479.3 Q408,481.6 470,488.1"/>
<path id="gl45" d="M346,487.5 Q408,489.8 470,496.3"/>
<path id="gl46" d="M346,495.7 Q408,498.0 470,504.5"/>
<path id="gl47" d="M346,503.9 Q408,506.2 470,512.7"/>
<path id="gl48" d="M346,512.1 Q408,514.4 470,520.9"/>
<path id="gl49" d="M346,520.3 Q408,522.6 470,529.1"/>
<path id="gl50" d="M346,528.5 Q408,530.8 470,537.3"/>
<path id="gl51" d="M346,536.7 Q408,539.0 470,545.5"/>
<path id="gl52" d="M346,544.9 Q408,547.2 470,553.7"/>
<path id="gl53" d="M346,553.1 Q408,555.4 470,561.9"/>
<path id="gl54" d="M346,561.3 Q408,563.6 470,570.1"/>
<path id="gl55" d="M346,569.5 Q408,571.8 470,578.3"/>
<path id="gl56" d="M346,577.7 Q408,580.0 470,586.5"/>
<path id="gl57" d="M346,585.9 Q408,588.2 470,594.7"/>
<path id="gl58" d="M346,594.1 Q408,596.4 470,602.9"/>
<path id="gl59" d="M346,602.3 Q408,604.6 470,611.1"/>
<path id="gl60" d="M346,610.5 Q408,612.8 470,619.3"/>
<path id="gl61" d="M346,618.7 Q408,621.0 470,627.5"/>
<path id="gl62" d="M346,626.9 Q408,629.2 470,635.7"/>
<path id="gl63" d="M346,635.1 Q408,637.4 470,643.9"/>
<path id="gl64" d="M346,643.3 Q408,645.6 470,652.1"/>
<path id="gl65" d="M346,651.5 Q408,653.8 470,660.3"/>
<path id="gl66" d="M346,659.7 Q408,662.0 470,668.5"/>
<path id="gl67" d="M346,667.9 Q408,670.2 470,676.7"/>
<path id="gl68" d="M556,405.9 Q616,399.6 676,397.4"/>
<path id="gl69" d="M556,414.1 Q616,407.8 676,405.6"/>
<path id="gl70" d="M556,422.3 Q616,416.0 676,413.8"/>
<path id="gl71" d="M556,430.5 Q616,424.2 676,422.0"/>
<path id="gl72" d="M556,438.7 Q616,432.4 676,430.2"/>
<path id="gl73" d="M556,446.9 Q616,440.6 676,438.4"/>
<path id="gl74" d="M556,455.1 Q616,448.8 676,446.6"/>
<path id="gl75" d="M556,463.3 Q616,457.0 676,454.8"/>
<path id="gl76" d="M556,471.5 Q616,465.2 676,463.0"/>
<path id="gl77" d="M556,479.7 Q616,473.4 676,471.2"/>
<path id="gl78" d="M556,487.9 Q616,481.6 676,479.4"/>
<path id="gl79" d="M556,496.1 Q616,489.8 676,487.6"/>
<path id="gl80" d="M556,504.3 Q616,498.0 676,495.8"/>
<path id="gl81" d="M556,512.5 Q616,506.2 676,504.0"/>
<path id="gl82" d="M556,520.7 Q616,514.4 676,512.2"/>
<path id="gl83" d="M556,528.9 Q616,522.6 676,520.4"/>
<path id="gl84" d="M556,537.1 Q616,530.8 676,528.6"/>
<path id="gl85" d="M556,545.3 Q616,539.0 676,536.8"/>
<path id="gl86" d="M556,553.5 Q616,547.2 676,545.0"/>
<path id="gl87" d="M556,561.7 Q616,555.4 676,553.2"/>
<path id="gl88" d="M556,569.9 Q616,563.6 676,561.4"/>
<path id="gl89" d="M556,578.1 Q616,571.8 676,569.6"/>
<path id="gl90" d="M556,586.3 Q616,580.0 676,577.8"/>
<path id="gl91" d="M556,594.5 Q616,588.2 676,586.0"/>
<path id="gl92" d="M556,602.7 Q616,596.4 676,594.2"/>
<path id="gl93" d="M556,610.9 Q616,604.6 676,602.4"/>
<path id="gl94" d="M556,619.1 Q616,612.8 676,610.6"/>
<path id="gl95" d="M556,627.3 Q616,621.0 676,618.8"/>
<path id="gl96" d="M556,635.5 Q616,629.2 676,627.0"/>
<path id="gl97" d="M556,643.7 Q616,637.4 676,635.2"/>
<path id="gl98" d="M556,651.9 Q616,645.6 676,643.4"/>
<path id="gl99" d="M556,660.1 Q616,653.8 676,651.6"/>
<path id="gl100" d="M556,668.3 Q616,662.0 676,659.8"/>
<path id="gl101" d="M556,676.5 Q616,670.2 676,668.0"/>
<path id="gl102" d="M704,396.0 Q765,392.1 826,392.3"/>
<path id="gl103" d="M704,404.2 Q765,400.3 826,400.5"/>
<path id="gl104" d="M704,412.4 Q765,408.5 826,408.7"/>
<path id="gl105" d="M704,420.6 Q765,416.7 826,416.9"/>
<path id="gl106" d="M704,428.8 Q765,424.9 826,425.1"/>
<path id="gl107" d="M704,437.0 Q765,433.1 826,433.3"/>
<path id="gl108" d="M704,445.2 Q765,441.3 826,441.5"/>
<path id="gl109" d="M704,453.4 Q765,449.5 826,449.7"/>
<path id="gl110" d="M704,461.6 Q765,457.7 826,457.9"/>
<path id="gl111" d="M704,469.8 Q765,465.9 826,466.1"/>
<path id="gl112" d="M704,478.0 Q765,474.1 826,474.3"/>
<path id="gl113" d="M704,486.2 Q765,482.3 826,482.5"/>
<path id="gl114" d="M704,494.4 Q765,490.5 826,490.7"/>
<path id="gl115" d="M704,502.6 Q765,498.7 826,498.9"/>
<path id="gl116" d="M704,510.8 Q765,506.9 826,507.1"/>
<path id="gl117" d="M704,519.0 Q765,515.1 826,515.3"/>
<path id="gl118" d="M704,527.2 Q765,523.3 826,523.5"/>
</defs><rect width="1024" height="1024" fill="url(#bg)"/><g transform="translate(512 560) scale(1.12) translate(-512 -600)">

<!-- light from the upper left -->
<circle cx="400" cy="300" r="520" fill="url(#glow)"/>
<!-- shadow under the book -->
<ellipse cx="512" cy="820" rx="400" ry="58" fill="#000" opacity=".75" filter="url(#drop)"/>
<!-- leather cover -->
<path d="M512,392 C420,344 262,330 124,348 L114,752 C262,738 420,752 512,806 C604,752 762,738 910,752 L900,348 C762,330 604,344 512,392 Z" fill="url(#leather)"/>
<path d="M114,752 C262,738 420,752 512,806 C604,752 762,738 910,752" stroke="#c99a3a" stroke-width="3" fill="none" opacity=".55"/>
<!-- page block (gilt edges) -->
<path d="M144,704 C262,690 420,706 512,760 C604,706 762,690 880,704 L882,736 C762,722 604,738 512,792 C420,738 262,722 142,736 Z" fill="url(#gilt)"/>
<g stroke="#8a6624" stroke-width="1.2" opacity=".55" fill="none">
  <path d="M144,712 C262,698 420,714 512,768 C604,714 762,698 880,712"/>
  <path d="M143,720 C262,706 420,722 512,776 C604,722 762,706 881,720"/>
  <path d="M143,728 C262,714 420,730 512,784 C604,730 762,714 881,728"/>
</g>
<!-- pages -->
<path d="M512,352 C420,300 270,286 152,304 L144,704 C262,690 420,706 512,760 Z" fill="url(#pageL)"/>
<path d="M512,352 C604,300 754,286 872,304 L880,704 C762,690 604,706 512,760 Z" fill="url(#pageR)"/>
<path d="M512,352 C420,300 270,286 152,304 L144,704 C262,690 420,706 512,760 Z" fill="url(#pageTop)"/>
<path d="M512,352 C604,300 754,286 872,304 L880,704 C762,690 604,706 512,760 Z" fill="url(#pageTop)"/>
<!-- text -->
<g font-family="Georgia, 'Times New Roman', serif" font-size="7.0" fill="#3b2f22" fill-opacity=".62" clip-path="url(#clipL)"><text><textPath href="#gl0" textLength="122" lengthAdjust="spacing">1 In the beginning God created the</textPath></text><text><textPath href="#gl1" textLength="122" lengthAdjust="spacing">heaven and the earth. 2 And the earth</textPath></text><text><textPath href="#gl2" textLength="122" lengthAdjust="spacing">was without form, and void; and</textPath></text><text><textPath href="#gl3" textLength="122" lengthAdjust="spacing">darkness was upon the face of the</textPath></text><text><textPath href="#gl4" textLength="122" lengthAdjust="spacing">deep. And the Spirit of God moved</textPath></text><text><textPath href="#gl5" textLength="122" lengthAdjust="spacing">upon the face of the waters. 3 And</textPath></text><text><textPath href="#gl6" textLength="122" lengthAdjust="spacing">God said, Let there be light: and</textPath></text><text><textPath href="#gl7" textLength="122" lengthAdjust="spacing">there was light. 4 And God saw the</textPath></text><text><textPath href="#gl8" textLength="122" lengthAdjust="spacing">light, that it was good: and God</textPath></text><text><textPath href="#gl9" textLength="122" lengthAdjust="spacing">divided the light from the darkness.</textPath></text><text><textPath href="#gl10" textLength="122" lengthAdjust="spacing">5 And God called the light Day, and</textPath></text><text><textPath href="#gl11" textLength="122" lengthAdjust="spacing">the darkness he called Night. And the</textPath></text><text><textPath href="#gl12" textLength="122" lengthAdjust="spacing">evening and the morning were the</textPath></text><text><textPath href="#gl13" textLength="122" lengthAdjust="spacing">first day. 6 And God said, Let there</textPath></text><text><textPath href="#gl14" textLength="122" lengthAdjust="spacing">be a firmament in the midst of the</textPath></text><text><textPath href="#gl15" textLength="122" lengthAdjust="spacing">waters, and let it divide the waters</textPath></text><text><textPath href="#gl16" textLength="122" lengthAdjust="spacing">from the waters. 7 And God made the</textPath></text><text><textPath href="#gl17" textLength="122" lengthAdjust="spacing">firmament, and divided the waters</textPath></text><text><textPath href="#gl18" textLength="122" lengthAdjust="spacing">which were under the firmament from</textPath></text><text><textPath href="#gl19" textLength="122" lengthAdjust="spacing">the waters which were above the</textPath></text><text><textPath href="#gl20" textLength="122" lengthAdjust="spacing">firmament: and it was so. 8 And God</textPath></text><text><textPath href="#gl21" textLength="122" lengthAdjust="spacing">called the firmament Heaven. And the</textPath></text><text><textPath href="#gl22" textLength="122" lengthAdjust="spacing">evening and the morning were the</textPath></text><text><textPath href="#gl23" textLength="122" lengthAdjust="spacing">second day. 9 And God said, Let the</textPath></text><text><textPath href="#gl24" textLength="122" lengthAdjust="spacing">waters under the heaven be gathered</textPath></text><text><textPath href="#gl25" textLength="122" lengthAdjust="spacing">together unto one place, and let the</textPath></text><text><textPath href="#gl26" textLength="122" lengthAdjust="spacing">dry land appear: and it was so. 10</textPath></text><text><textPath href="#gl27" textLength="122" lengthAdjust="spacing">And God called the dry land Earth;</textPath></text><text><textPath href="#gl28" textLength="122" lengthAdjust="spacing">and the gathering together of the</textPath></text><text><textPath href="#gl29" textLength="122" lengthAdjust="spacing">waters called he Seas: and God saw</textPath></text><text><textPath href="#gl30" textLength="122" lengthAdjust="spacing">that it was good. 11 And God said,</textPath></text><text><textPath href="#gl31" textLength="122" lengthAdjust="spacing">Let the earth bring forth grass, the</textPath></text><text><textPath href="#gl32" textLength="122" lengthAdjust="spacing">herb yielding seed, and the fruit</textPath></text><text><textPath href="#gl33" textLength="122" lengthAdjust="spacing">tree yielding fruit after his kind,</textPath></text><text><textPath href="#gl34" textLength="124" lengthAdjust="spacing">whose seed is in itself, upon the</textPath></text><text><textPath href="#gl35" textLength="124" lengthAdjust="spacing">earth: and it was so. 12 And the</textPath></text><text><textPath href="#gl36" textLength="124" lengthAdjust="spacing">earth brought forth grass, and herb</textPath></text><text><textPath href="#gl37" textLength="124" lengthAdjust="spacing">yielding seed after his kind, and the</textPath></text><text><textPath href="#gl38" textLength="124" lengthAdjust="spacing">tree yielding fruit, whose seed was</textPath></text><text><textPath href="#gl39" textLength="124" lengthAdjust="spacing">in itself, after his kind: and God</textPath></text><text><textPath href="#gl40" textLength="124" lengthAdjust="spacing">saw that it was good. 13 And the</textPath></text><text><textPath href="#gl41" textLength="124" lengthAdjust="spacing">evening and the morning were the</textPath></text><text><textPath href="#gl42" textLength="124" lengthAdjust="spacing">third day. 14 And God said, Let there</textPath></text><text><textPath href="#gl43" textLength="124" lengthAdjust="spacing">be lights in the firmament of the</textPath></text><text><textPath href="#gl44" textLength="124" lengthAdjust="spacing">heaven to divide the day from the</textPath></text><text><textPath href="#gl45" textLength="124" lengthAdjust="spacing">night; and let them be for signs, and</textPath></text><text><textPath href="#gl46" textLength="124" lengthAdjust="spacing">for seasons, and for days, and years:</textPath></text><text><textPath href="#gl47" textLength="124" lengthAdjust="spacing">15 And let them be for lights in the</textPath></text><text><textPath href="#gl48" textLength="124" lengthAdjust="spacing">firmament of the heaven to give light</textPath></text><text><textPath href="#gl49" textLength="124" lengthAdjust="spacing">upon the earth: and it was so. 16 And</textPath></text><text><textPath href="#gl50" textLength="124" lengthAdjust="spacing">God made two great lights; the</textPath></text><text><textPath href="#gl51" textLength="124" lengthAdjust="spacing">greater light to rule the day, and</textPath></text><text><textPath href="#gl52" textLength="124" lengthAdjust="spacing">the lesser light to rule the night:</textPath></text><text><textPath href="#gl53" textLength="124" lengthAdjust="spacing">he made the stars also. 17 And God</textPath></text><text><textPath href="#gl54" textLength="124" lengthAdjust="spacing">set them in the firmament of the</textPath></text><text><textPath href="#gl55" textLength="124" lengthAdjust="spacing">heaven to give light upon the earth,</textPath></text><text><textPath href="#gl56" textLength="124" lengthAdjust="spacing">18 And to rule over the day and over</textPath></text><text><textPath href="#gl57" textLength="124" lengthAdjust="spacing">the night, and to divide the light</textPath></text><text><textPath href="#gl58" textLength="124" lengthAdjust="spacing">from the darkness: and God saw that</textPath></text><text><textPath href="#gl59" textLength="124" lengthAdjust="spacing">it was good. 19 And the evening and</textPath></text><text><textPath href="#gl60" textLength="124" lengthAdjust="spacing">the morning were the fourth day. 20</textPath></text><text><textPath href="#gl61" textLength="124" lengthAdjust="spacing">And God said, Let the waters bring</textPath></text><text><textPath href="#gl62" textLength="124" lengthAdjust="spacing">forth abundantly the moving creature</textPath></text><text><textPath href="#gl63" textLength="124" lengthAdjust="spacing">that hath life, and fowl that may fly</textPath></text><text><textPath href="#gl64" textLength="124" lengthAdjust="spacing">above the earth in the open firmament</textPath></text><text><textPath href="#gl65" textLength="124" lengthAdjust="spacing">of heaven. 21 And God created great</textPath></text><text><textPath href="#gl66" textLength="124" lengthAdjust="spacing">whales, and every living creature</textPath></text><text><textPath href="#gl67" textLength="124" lengthAdjust="spacing">that moveth, which the waters brought</textPath></text></g>
<g font-family="Georgia, 'Times New Roman', serif" font-size="7.0" fill="#3b2f22" fill-opacity=".62" clip-path="url(#clipR)"><text><textPath href="#gl68" textLength="120" lengthAdjust="spacing">forth abundantly, after their kind,</textPath></text><text><textPath href="#gl69" textLength="120" lengthAdjust="spacing">and every winged fowl after his</textPath></text><text><textPath href="#gl70" textLength="120" lengthAdjust="spacing">kind: and God saw that it was good.</textPath></text><text><textPath href="#gl71" textLength="120" lengthAdjust="spacing">22 And God blessed them, saying, Be</textPath></text><text><textPath href="#gl72" textLength="120" lengthAdjust="spacing">fruitful, and multiply, and fill the</textPath></text><text><textPath href="#gl73" textLength="120" lengthAdjust="spacing">waters in the seas, and let fowl</textPath></text><text><textPath href="#gl74" textLength="120" lengthAdjust="spacing">multiply in the earth. 23 And the</textPath></text><text><textPath href="#gl75" textLength="120" lengthAdjust="spacing">evening and the morning were the</textPath></text><text><textPath href="#gl76" textLength="120" lengthAdjust="spacing">fifth day. 24 And God said, Let the</textPath></text><text><textPath href="#gl77" textLength="120" lengthAdjust="spacing">earth bring forth the living</textPath></text><text><textPath href="#gl78" textLength="120" lengthAdjust="spacing">creature after his kind, cattle, and</textPath></text><text><textPath href="#gl79" textLength="120" lengthAdjust="spacing">creeping thing, and beast of the</textPath></text><text><textPath href="#gl80" textLength="120" lengthAdjust="spacing">earth after his kind: and it was so.</textPath></text><text><textPath href="#gl81" textLength="120" lengthAdjust="spacing">25 And God made the beast of the</textPath></text><text><textPath href="#gl82" textLength="120" lengthAdjust="spacing">earth after his kind, and cattle</textPath></text><text><textPath href="#gl83" textLength="120" lengthAdjust="spacing">after their kind, and every thing</textPath></text><text><textPath href="#gl84" textLength="120" lengthAdjust="spacing">that creepeth upon the earth after</textPath></text><text><textPath href="#gl85" textLength="120" lengthAdjust="spacing">his kind: and God saw that it was</textPath></text><text><textPath href="#gl86" textLength="120" lengthAdjust="spacing">good. 26 And God said, Let us make</textPath></text><text><textPath href="#gl87" textLength="120" lengthAdjust="spacing">man in our image, after our</textPath></text><text><textPath href="#gl88" textLength="120" lengthAdjust="spacing">likeness: and let them have dominion</textPath></text><text><textPath href="#gl89" textLength="120" lengthAdjust="spacing">over the fish of the sea, and over</textPath></text><text><textPath href="#gl90" textLength="120" lengthAdjust="spacing">the fowl of the air, and over the</textPath></text><text><textPath href="#gl91" textLength="120" lengthAdjust="spacing">cattle, and over all the earth, and</textPath></text><text><textPath href="#gl92" textLength="120" lengthAdjust="spacing">over every creeping thing that</textPath></text><text><textPath href="#gl93" textLength="120" lengthAdjust="spacing">creepeth upon the earth. 27 So God</textPath></text><text><textPath href="#gl94" textLength="120" lengthAdjust="spacing">created man in his own image, in the</textPath></text><text><textPath href="#gl95" textLength="120" lengthAdjust="spacing">image of God created he him; male</textPath></text><text><textPath href="#gl96" textLength="120" lengthAdjust="spacing">and female created he them. 28 And</textPath></text><text><textPath href="#gl97" textLength="120" lengthAdjust="spacing">God blessed them, and God said unto</textPath></text><text><textPath href="#gl98" textLength="120" lengthAdjust="spacing">them, Be fruitful, and multiply, and</textPath></text><text><textPath href="#gl99" textLength="120" lengthAdjust="spacing">replenish the earth, and subdue it:</textPath></text><text><textPath href="#gl100" textLength="120" lengthAdjust="spacing">and have dominion over the fish of</textPath></text><text><textPath href="#gl101" textLength="120" lengthAdjust="spacing">the sea, and over the fowl of the</textPath></text><text><textPath href="#gl102" textLength="122" lengthAdjust="spacing">air, and over every living thing that</textPath></text><text><textPath href="#gl103" textLength="122" lengthAdjust="spacing">moveth upon the earth. 29 And God</textPath></text><text><textPath href="#gl104" textLength="122" lengthAdjust="spacing">said, Behold, I have given you every</textPath></text><text><textPath href="#gl105" textLength="122" lengthAdjust="spacing">herb bearing seed, which is upon the</textPath></text><text><textPath href="#gl106" textLength="122" lengthAdjust="spacing">face of all the earth, and every</textPath></text><text><textPath href="#gl107" textLength="122" lengthAdjust="spacing">tree, in the which is the fruit of a</textPath></text><text><textPath href="#gl108" textLength="122" lengthAdjust="spacing">tree yielding seed; to you it shall</textPath></text><text><textPath href="#gl109" textLength="122" lengthAdjust="spacing">be for meat. 30 And to every beast of</textPath></text><text><textPath href="#gl110" textLength="122" lengthAdjust="spacing">the earth, and to every fowl of the</textPath></text><text><textPath href="#gl111" textLength="122" lengthAdjust="spacing">air, and to every thing that creepeth</textPath></text><text><textPath href="#gl112" textLength="122" lengthAdjust="spacing">upon the earth, wherein there is</textPath></text><text><textPath href="#gl113" textLength="122" lengthAdjust="spacing">life, I have given every green herb</textPath></text><text><textPath href="#gl114" textLength="122" lengthAdjust="spacing">for meat: and it was so. 31 And God</textPath></text><text><textPath href="#gl115" textLength="122" lengthAdjust="spacing">saw every thing that he had made,</textPath></text><text><textPath href="#gl116" textLength="122" lengthAdjust="spacing">and, behold, it was very good. And</textPath></text><text><textPath href="#gl117" textLength="122" lengthAdjust="spacing">the evening and the morning were the</textPath></text><text><textPath href="#gl118">sixth day.</textPath></text></g>
<!-- red chapter initial on the left page -->

<path id="hdL" d="M180,356 Q257,347 334,352" fill="none"/><text font-family="Georgia, serif" font-size="8.6" letter-spacing=".4" fill="#a3302a" fill-opacity=".9"><textPath href="#hdL" startOffset="50%" text-anchor="middle">THE FIRST BOOK OF MOSES,</textPath></text>
<path id="hdR" d="M556,356 Q616,349 676,353" fill="none"/><text font-family="Georgia, serif" font-size="8.6" letter-spacing=".4" fill="#a3302a" fill-opacity=".9"><textPath href="#hdR" startOffset="50%" text-anchor="middle">CALLED GENESIS.</textPath></text>
<!-- gutter shadow -->
<ellipse cx="512" cy="560" rx="46" ry="230" fill="url(#gutter)"/>
<path d="M512,352 L512,760" stroke="#8c7550" stroke-width="2" opacity=".6"/>

  <path d="M500,360 C505,520 498,700 506,800 L506,905 L524,880 L542,905 L542,800 C536,700 532,520 528,360 Z" fill="url(#ribbon)" filter="url(#soft)"/>
  <path d="M512,370 C516,520 512,700 518,800" stroke="#c94a4a" stroke-width="3" opacity=".5" fill="none"/>

  <g filter="url(#penShadow)" transform="translate(840,318) rotate(28) scale(.86)">
    <rect x="-30" y="0" width="60" height="520" rx="30" fill="#000" opacity=".55"/>
  </g>
  <g transform="translate(826,300) rotate(28) scale(.86)">
    <!-- barrel -->
    <rect x="-27" y="0" width="54" height="430" rx="27" fill="url(#gold)"/>
    <rect x="-27" y="0" width="54" height="430" rx="27" fill="url(#goldShine)"/>
    <!-- cap band -->
    <rect x="-28" y="150" width="56" height="16" fill="url(#goldDark)"/>
    <rect x="-28" y="153" width="56" height="3" fill="#fff3c4" opacity=".7"/>
    <!-- clip -->
    <rect x="-6" y="18" width="12" height="150" rx="6" fill="url(#goldDark)"/>
    <circle cx="0" cy="166" r="9" fill="url(#goldDark)"/>
    <!-- grip -->
    <path d="M-27,430 L27,430 L20,470 L-20,470 Z" fill="#2a2018"/>
    <!-- nib -->
    <path d="M-20,470 L20,470 L4,560 L0,572 L-4,560 Z" fill="url(#nib)"/>
    <path d="M0,500 L0,566" stroke="#5a4012" stroke-width="2.5"/>
    <circle cx="0" cy="498" r="5" fill="#2a1d08"/>
  </g>
<!-- soft vignette -->
<rect width="1024" height="1024" fill="url(#bg)" opacity="0"/>
</g></svg>